<mxfile host="app.diagrams.net" modified="2024-04-04T12:57:23.517Z" agent="Mozilla/5.0 (Macintosh; Intel Mac OS X 10_15_7) AppleWebKit/537.36 (KHTML, like Gecko) Chrome/123.0.0.0 Safari/537.36 Edg/123.0.0.0" version="24.1.0" etag="sE-Pg2lJMtCVuACj16bG" type="github">
  <diagram name="Page-1" id="4pufBpFtqtPMvBEhd-HC">
    <mxGraphModel>
      <root>
        <mxCell id="0" />
        <mxCell id="1" parent="0" />
      </root>
    </mxGraphModel>
  </diagram>
</mxfile>
